ffmpeg version 3.4.8-0ubuntu0.2 Copyright (c) 2000-2020 the FFmpeg developers
  built with gcc 7 (Ubuntu 7.5.0-3ubuntu1~18.04)
  configuration: --prefix=/usr --extra-version=0ubuntu0.2 --toolchain=hardened --libdir=/usr/lib/x86_64-linux-gnu --incdir=/usr/include/x86_64-linux-gnu --enable-gpl --disable-stripping --enable-avresample --enable-avisynth --enable-gnutls --enable-ladspa --enable-libass --enable-libbluray --enable-libbs2b --enable-libcaca --enable-libcdio --enable-libflite --enable-libfontconfig --enable-libfreetype --enable-libfribidi --enable-libgme --enable-libgsm --enable-libmp3lame --enable-libmysofa --enable-libopenjpeg --enable-libopenmpt --enable-libopus --enable-libpulse --enable-librubberband --enable-librsvg --enable-libshine --enable-libsnappy --enable-libsoxr --enable-libspeex --enable-libssh --enable-libtheora --enable-libtwolame --enable-libvorbis --enable-libvpx --enable-libwavpack --enable-libwebp --enable-libx265 --enable-libxml2 --enable-libxvid --enable-libzmq --enable-libzvbi --enable-omx --enable-openal --enable-opengl --enable-sdl2 --enable-libdc1394 --enable-libdrm --enable-libiec61883 --enable-chromaprint --enable-frei0r --enable-libopencv --enable-libx264 --enable-shared
  libavutil      55. 78.100 / 55. 78.100
  libavcodec     57.107.100 / 57.107.100
  libavformat    57. 83.100 / 57. 83.100
  libavdevice    57. 10.100 / 57. 10.100
  libavfilter     6.107.100 /  6.107.100
  libavresample   3.  7.  0 /  3.  7.  0
  libswscale      4.  8.100 /  4.  8.100
  libswresample   2.  9.100 /  2.  9.100
  libpostproc    54.  7.100 / 54.  7.100
[rawvideo @ 0x5555ad4f7a20] Estimating duration from bitrate, this may be inaccurate
Input #0, rawvideo, from '../../SVC-Encoder-20220109T061506Z-001/SVC-Encoder/Dataset/RollerCoaster/6f_2x2/tile_yuv/f5_t2_480x480.yuv':
  Duration: 00:00:10.00, start: 0.000000, bitrate: 82944 kb/s
    Stream #0:0: Video: rawvideo (I420 / 0x30323449), yuv420p, 480x480, 82944 kb/s, 30 tbr, 30 tbn, 30 tbc
Stream mapping:
  Stream #0:0 -> #0:0 (rawvideo (native) -> h264 (libx264))
Press [q] to stop, [?] for help
[libx264 @ 0x5555ad504c60] using cpu capabilities: MMX2 SSE2Fast LZCNT SSSE3 SSE4.2 AVX
[libx264 @ 0x5555ad504c60] profile High, level 3.0
Output #0, rawvideo, to 'RollerCoaster_f5_t2_480x480_x264_QP_40.h264':
  Metadata:
    encoder         : Lavf57.83.100
    Stream #0:0: Video: h264 (libx264), yuv420p, 480x480, q=-1--1, 30 fps, 30 tbn, 30 tbc
    Metadata:
      encoder         : Lavc57.107.100 libx264
    Side data:
      cpb: bitrate max/min/avg: 0/0/0 buffer size: 0 vbv_delay: -1
frame=  124 fps=0.0 q=46.0 PSNR=Y:nan U:nan V:nan *:nan size=      24kB time=00:00:02.70 bitrate=  74.1kbits/s speed=5.39x    frame=  220 fps=218 q=46.0 PSNR=Y:nan U:nan V:nan *:nan size=      54kB time=00:00:05.90 bitrate=  74.3kbits/s speed=5.85x    frame=  300 fps=200 q=46.0 LPSNR=Y:inf U:inf V:inf *:inf size=      88kB time=00:00:09.93 bitrate=  72.7kbits/s speed=6.64x    
video:88kB audio:0kB subtitle:0kB other streams:0kB global headers:0kB muxing overhead: 0.000000%
[libx264 @ 0x5555ad504c60] frame I:2     Avg QP:39.06  size:  4619  PSNR Mean Y:31.23 U:40.46 V:43.13 Avg:32.79 Global:32.75
[libx264 @ 0x5555ad504c60] frame P:76    Avg QP:41.35  size:   624  PSNR Mean Y:30.22 U:40.08 V:42.92 Avg:31.81 Global:31.80
[libx264 @ 0x5555ad504c60] frame B:222   Avg QP:45.63  size:   151  PSNR Mean Y:29.98 U:39.94 V:42.82 Avg:31.58 Global:31.57
[libx264 @ 0x5555ad504c60] consecutive B-frames:  1.3%  0.0%  0.0% 98.7%
[libx264 @ 0x5555ad504c60] mb I  I16..4: 40.4% 58.0%  1.6%
[libx264 @ 0x5555ad504c60] mb P  I16..4:  2.4%  1.9%  0.0%  P16..4: 25.5%  0.9%  0.1%  0.0%  0.0%    skip:69.2%
[libx264 @ 0x5555ad504c60] mb B  I16..4:  0.0%  0.0%  0.0%  B16..8: 12.5%  0.4%  0.0%  direct: 0.0%  skip:87.0%  L0:39.4% L1:60.5% BI: 0.1%
[libx264 @ 0x5555ad504c60] 8x8 transform intra:49.1% inter:96.1%
[libx264 @ 0x5555ad504c60] coded y,uvDC,uvAC intra: 24.3% 38.2% 5.3% inter: 0.8% 0.8% 0.0%
[libx264 @ 0x5555ad504c60] i16 v,h,dc,p: 15% 51% 21% 13%
[libx264 @ 0x5555ad504c60] i8 v,h,dc,ddl,ddr,vr,hd,vl,hu:  3% 20% 45%  4%  7%  9%  4%  2%  5%
[libx264 @ 0x5555ad504c60] i4 v,h,dc,ddl,ddr,vr,hd,vl,hu:  5% 22% 48%  5%  6%  6%  1%  2%  5%
[libx264 @ 0x5555ad504c60] i8c dc,h,v,p: 68% 25%  4%  3%
[libx264 @ 0x5555ad504c60] Weighted P-Frames: Y:1.3% UV:1.3%
[libx264 @ 0x5555ad504c60] ref P L0: 61.8% 10.2% 16.7% 11.0%  0.3%
[libx264 @ 0x5555ad504c60] ref B L0: 80.0% 16.4%  3.7%
[libx264 @ 0x5555ad504c60] ref B L1: 83.9% 16.1%
[libx264 @ 0x5555ad504c60] PSNR Mean Y:30.050 U:39.981 V:42.849 Avg:31.646 Global:31.631 kb/s:72.17
